
<!-- Generator: visioncortex VTracer 0.6.4 -->
<svg version="1.1" xmlns="http://www.w3.org/2000/svg" viewBox="0 0 1024 1024" preserveAspectRatio="xMidYMid meet">
<path d="M0 0 C0.893 0.029 1.785 0.057 2.705 0.087 C3.722 0.118 4.739 0.148 5.786 0.18 C7.463 0.239 7.463 0.239 9.174 0.299 C10.911 0.355 10.911 0.355 12.683 0.412 C16.49 0.539 20.297 0.675 24.103 0.815 C25.4 0.861 26.696 0.908 28.032 0.956 C58.694 2.078 88.997 4.036 119.372 8.439 C120.116 8.546 120.86 8.654 121.626 8.764 C123.629 9.056 125.631 9.354 127.633 9.653 C130.843 10.131 130.843 10.131 133.554 10.001 C136.646 10.082 139.061 11.048 141.978 12.065 C144.569 12.664 147.151 13.229 149.756 13.756 C150.485 13.906 151.215 14.056 151.966 14.211 C153.501 14.526 155.037 14.84 156.573 15.151 C158.906 15.625 161.238 16.105 163.57 16.586 C165.069 16.893 166.569 17.2 168.068 17.506 C168.757 17.648 169.446 17.789 170.155 17.935 C174.415 18.796 178.677 19.453 182.978 20.065 C184.556 20.538 186.122 21.053 187.666 21.627 C190.836 22.804 192.444 23.065 195.978 23.065 C195.978 23.725 195.978 24.385 195.978 25.065 C197.442 25.233 197.442 25.233 198.935 25.404 C204.097 26.141 208.964 27.779 213.926 29.336 C214.648 29.557 215.371 29.778 216.115 30.006 C216.762 30.209 217.408 30.412 218.075 30.621 C220.302 31.216 220.302 31.216 223.978 31.065 C223.978 31.725 223.978 32.385 223.978 33.065 C225.055 33.31 225.055 33.31 226.153 33.56 C233.92 35.407 241.323 37.816 248.791 40.627 C249.962 41.065 251.134 41.504 252.341 41.955 C263.731 46.268 274.903 51 285.978 56.065 C286.953 56.509 287.928 56.954 288.932 57.413 C299.127 62.097 309.165 66.959 318.853 72.627 C319.567 73.045 320.281 73.462 321.017 73.893 C325.845 76.799 325.845 76.799 326.978 79.065 C327.122 80.751 327.205 82.443 327.259 84.135 C327.296 85.232 327.333 86.329 327.371 87.46 C327.407 88.691 327.442 89.921 327.478 91.19 C327.517 92.509 327.557 93.828 327.597 95.187 C327.684 98.171 327.765 101.154 327.844 104.138 C327.934 107.505 328.032 110.871 328.135 114.237 C330.25 183.758 329.029 253.566 315.978 322.065 C315.754 323.254 315.53 324.443 315.299 325.668 C304.53 382.126 285.184 437.949 254.978 487.065 C254.502 487.85 254.025 488.635 253.534 489.444 C247.025 500.148 240.065 510.343 232.388 520.242 C231.042 521.982 229.713 523.733 228.388 525.49 C222.52 533.251 216.323 540.691 209.978 548.065 C208.362 549.947 206.746 551.83 205.13 553.713 C204.1 554.913 203.07 556.111 202.037 557.308 C199.283 560.51 196.595 563.749 193.978 567.065 C192.953 563.679 192.851 560.587 192.849 557.058 C192.846 555.847 192.843 554.636 192.839 553.388 C192.842 551.431 192.842 551.431 192.845 549.436 C192.845 548.081 192.844 546.726 192.843 545.371 C192.841 542.536 192.843 539.701 192.848 536.866 C192.854 533.232 192.85 529.598 192.844 525.964 C192.841 523.168 192.842 520.372 192.844 517.576 C192.845 515.585 192.842 513.594 192.839 511.602 C192.842 510.394 192.846 509.186 192.849 507.941 C192.85 506.344 192.85 506.344 192.851 504.714 C192.978 502.065 192.978 502.065 193.978 499.065 C193.318 498.735 192.658 498.405 191.978 498.065 C192.308 497.735 192.638 497.405 192.978 497.065 C193.077 495.393 193.105 493.717 193.105 492.043 C193.109 490.411 193.109 490.411 193.114 488.746 C193.112 487.542 193.11 486.337 193.108 485.097 C193.109 483.837 193.111 482.577 193.113 481.278 C193.118 477.811 193.116 474.344 193.113 470.877 C193.11 467.252 193.112 463.627 193.114 460.001 C193.116 453.908 193.113 447.815 193.109 441.722 C193.103 434.68 193.105 427.638 193.11 420.596 C193.115 414.554 193.116 408.511 193.113 402.469 C193.111 398.858 193.111 395.248 193.115 391.638 C193.118 387.609 193.113 383.579 193.108 379.55 C193.111 377.756 193.111 377.756 193.114 375.925 C193.111 374.826 193.108 373.727 193.105 372.594 C193.105 371.642 193.104 370.689 193.104 369.707 C192.978 367.065 192.526 364.647 191.978 362.065 C192.099 359.994 192.099 359.994 192.416 357.94 C193.419 350.079 193.083 342.409 192.205 334.557 C191.73 329.334 191.309 324.073 192.978 319.065 C192.651 316.73 192.318 314.397 191.978 312.065 C192.308 311.405 192.638 310.745 192.978 310.065 C193.05 307.181 193.071 304.322 193.041 301.44 C193.034 300.237 193.034 300.237 193.027 299.01 C193.015 297.028 192.997 295.046 192.978 293.065 C183.074 303.579 183.074 303.579 173.482 314.377 C171.339 316.782 169.039 319.013 166.744 321.272 C163.037 325.036 159.446 328.982 156.4 333.303 C155.931 333.884 155.462 334.466 154.978 335.065 C154.318 335.065 153.658 335.065 152.978 335.065 C152.609 335.952 152.609 335.952 152.233 336.858 C150.978 339.065 150.978 339.065 149.059 340.607 C145.73 343.314 143.412 345.946 142.53 350.254 C141.818 357.245 142.091 364.281 142.232 371.295 C142.251 373.698 142.266 376.1 142.277 378.503 C142.308 383.692 142.363 388.879 142.436 394.068 C142.542 401.622 142.587 409.176 142.615 416.731 C142.661 429.245 142.732 441.759 142.826 454.273 C142.832 455.035 142.838 455.797 142.844 456.583 C142.91 465.323 142.986 474.064 143.074 482.804 C143.255 500.801 143.399 518.797 143.427 536.795 C143.444 545.483 143.512 554.168 143.647 562.855 C143.736 568.84 143.766 574.824 143.752 580.809 C143.746 584.274 143.765 587.734 143.855 591.198 C144.348 613.163 144.348 613.163 138.476 619.534 C135.192 622.465 131.689 624.812 127.863 626.974 C125.342 628.433 123.125 630.198 120.873 632.037 C119.514 633.07 118.154 634.1 116.791 635.127 C109.103 640.766 109.103 640.766 101.978 647.065 C99.853 647.69 99.853 647.69 97.978 648.065 C96.742 642.41 96.944 636.943 97.099 631.197 C97.123 630.163 97.147 629.128 97.171 628.062 C97.247 624.771 97.331 621.48 97.416 618.19 C97.469 615.953 97.522 613.716 97.574 611.479 C97.703 606.007 97.838 600.536 97.978 595.065 C96.988 594.735 95.998 594.405 94.978 594.065 C95.968 594.065 96.958 594.065 97.978 594.065 C97.838 591.773 97.691 589.481 97.541 587.19 C97.46 585.913 97.378 584.637 97.295 583.322 C97.186 580.182 97.186 580.182 95.978 578.065 C96.638 578.065 97.298 578.065 97.978 578.065 C97.948 577.176 97.918 576.287 97.886 575.372 C97.262 556.689 96.83 538.04 96.962 519.344 C96.975 517.584 96.978 515.824 96.978 514.065 C96.978 502.398 96.978 490.731 96.978 479.065 C96.648 479.065 96.318 479.065 95.978 479.065 C95.936 477.398 95.938 475.731 95.978 474.065 C96.308 473.735 96.638 473.405 96.978 473.065 C97.233 468.466 97.163 463.857 97.166 459.252 C97.178 457.955 97.19 456.657 97.203 455.32 C97.205 454.074 97.207 452.829 97.209 451.545 C97.213 450.399 97.217 449.254 97.221 448.073 C96.987 445.167 96.494 443.517 94.978 441.065 C95.968 441.065 96.958 441.065 97.978 441.065 C97.906 440.161 97.834 439.257 97.759 438.326 C97.667 437.147 97.574 435.967 97.478 434.752 C97.385 433.58 97.293 432.408 97.197 431.201 C96.341 418.922 96.978 406.379 96.978 394.065 C91.518 399.456 91.518 399.456 86.353 405.127 C85.776 405.795 85.198 406.462 84.603 407.15 C83.17 408.838 81.758 410.54 80.353 412.252 C77.408 415.74 74.205 418.882 70.92 422.049 C70.196 422.755 69.473 423.462 68.728 424.19 C68.042 424.852 67.357 425.515 66.65 426.197 C64.759 428.061 64.759 428.061 63.978 431.065 C62.988 431.395 61.998 431.725 60.978 432.065 C59.16 433.821 59.16 433.821 57.416 435.94 C56.816 436.638 56.217 437.337 55.599 438.057 C53.839 440.174 53.839 440.174 51.978 443.065 C51.318 443.065 50.658 443.065 49.978 443.065 C48.373 445.904 47.729 447.931 47.735 451.187 C47.73 452.414 47.73 452.414 47.725 453.665 C47.731 454.558 47.738 455.451 47.744 456.371 C47.743 457.324 47.742 458.276 47.741 459.258 C47.74 462.459 47.754 465.659 47.767 468.86 C47.769 471.151 47.771 473.442 47.771 475.733 C47.774 480.671 47.783 485.609 47.797 490.546 C47.82 498.348 47.828 506.15 47.834 513.951 C47.844 524.884 47.86 535.817 47.882 546.75 C47.884 547.444 47.885 548.137 47.887 548.852 C47.889 549.894 47.889 549.894 47.891 550.957 C47.911 560.808 47.928 570.659 47.944 580.51 C47.945 581.203 47.946 581.896 47.947 582.61 C47.965 594.16 47.979 605.71 47.991 617.26 C47.999 625.022 48.013 632.783 48.032 640.545 C48.043 645.366 48.049 650.186 48.055 655.007 C48.058 657.249 48.063 659.49 48.071 661.732 C48.08 664.783 48.083 667.834 48.085 670.885 C48.089 671.78 48.094 672.675 48.098 673.598 C48.095 677.003 48.063 679.811 46.978 683.065 C45.422 684.316 45.422 684.316 43.392 685.561 C42.635 686.031 41.878 686.502 41.098 686.987 C39.863 687.737 39.863 687.737 38.603 688.502 C36.874 689.569 35.145 690.637 33.416 691.705 C32.521 692.255 31.627 692.805 30.705 693.371 C28.006 695.048 25.333 696.759 22.666 698.486 C21.392 699.307 21.392 699.307 20.093 700.145 C18.462 701.197 16.835 702.255 15.211 703.318 C8.393 707.686 8.393 707.686 3.978 708.065 C4.308 707.075 4.638 706.085 4.978 705.065 C4.318 704.735 3.658 704.405 2.978 704.065 C3.05 703.023 3.123 701.981 3.197 700.908 C5.359 684.555 5.359 684.555 2.978 669.065 C3.067 667.003 3.222 664.944 3.408 662.889 C4.018 655.209 4.127 647.582 4.103 639.877 C4.107 638.582 4.111 637.287 4.115 635.953 C4.114 634.718 4.112 633.482 4.111 632.209 C4.11 631.099 4.109 629.989 4.108 628.845 C4.1 625.978 4.1 625.978 2.978 623.065 C3.638 623.065 4.298 623.065 4.978 623.065 C4.815 622.202 4.652 621.339 4.484 620.45 C3.998 617.199 3.864 614.18 3.881 610.897 C3.884 609.756 3.887 608.616 3.89 607.441 C3.899 606.265 3.907 605.089 3.916 603.877 C3.92 602.689 3.925 601.501 3.929 600.277 C3.938 598.084 3.949 595.89 3.962 593.697 C3.974 591.819 3.978 589.942 3.978 588.065 C3.99 586.252 4.002 584.44 4.013 582.627 C4.023 580.44 4.032 578.252 4.041 576.065 C4.049 574.958 4.057 573.852 4.066 572.713 C4.069 571.653 4.073 570.594 4.076 569.502 C4.081 568.531 4.086 567.561 4.092 566.561 C4.086 563.933 4.086 563.933 2.978 561.065 C3.308 560.075 3.638 559.085 3.978 558.065 C3.648 557.075 3.318 556.085 2.978 555.065 C3.298 553.062 3.634 551.063 3.978 549.065 C4.073 546.386 4.12 543.742 4.103 541.065 C4.101 539.904 4.101 539.904 4.1 538.719 C4.053 531.537 3.654 524.383 3.264 517.214 C2.939 510.48 3.093 503.882 3.66 497.166 C4.058 493.501 4.058 493.501 2.978 490.065 C2.179 490.596 1.38 491.127 0.556 491.674 C-10.269 498.637 -20.94 503.218 -34.022 503.19 C-35.816 503.193 -35.816 503.193 -37.647 503.197 C-40.586 503.082 -43.16 502.679 -46.022 502.065 C-45.915 503.178 -45.915 503.178 -45.805 504.315 C-45.065 512.774 -44.899 521.169 -44.947 529.651 C-44.96 532.001 -44.966 534.351 -44.971 536.702 C-44.982 541.677 -45.001 546.652 -45.022 551.627 C-45.045 557.429 -45.066 563.232 -45.078 569.034 C-45.084 571.345 -45.097 573.656 -45.109 575.967 C-45.113 577.381 -45.116 578.794 -45.119 580.207 C-45.125 581.438 -45.13 582.669 -45.135 583.938 C-45.041 586.525 -44.793 588.612 -44.022 591.065 C-44.682 591.065 -45.342 591.065 -46.022 591.065 C-45.859 591.728 -45.696 592.392 -45.529 593.076 C-44.915 596.695 -44.89 600.226 -44.908 603.884 C-44.908 604.655 -44.908 605.427 -44.908 606.221 C-44.908 608.759 -44.916 611.296 -44.924 613.834 C-44.926 615.598 -44.927 617.362 -44.928 619.126 C-44.932 623.761 -44.942 628.395 -44.953 633.029 C-44.963 637.762 -44.968 642.494 -44.973 647.227 C-44.984 656.506 -45.001 665.785 -45.022 675.065 C-49.404 673.429 -52.716 671.167 -56.334 668.252 C-61.644 664.066 -66.944 660.103 -73.022 657.065 C-74.122 655.929 -75.222 654.794 -76.319 653.654 C-79.295 650.876 -82.633 648.533 -85.912 646.127 C-88.884 643.221 -88.947 640.571 -89.149 636.512 C-89.15 635.608 -89.15 634.705 -89.151 633.774 C-89.154 632.743 -89.157 631.711 -89.161 630.648 C-89.158 628.99 -89.158 628.99 -89.155 627.299 C-89.156 626.151 -89.156 625.003 -89.157 623.82 C-89.158 621.393 -89.156 618.965 -89.152 616.538 C-89.147 612.842 -89.152 609.147 -89.158 605.451 C-89.158 603.088 -89.157 600.725 -89.155 598.361 C-89.157 597.264 -89.159 596.167 -89.161 595.037 C-89.156 593.47 -89.156 593.47 -89.151 591.872 C-89.15 590.966 -89.15 590.059 -89.149 589.125 C-89.046 586.638 -88.823 584.255 -88.523 581.788 C-87.973 577.071 -87.874 572.422 -87.876 567.677 C-87.873 566.786 -87.87 565.896 -87.866 564.978 C-87.857 562.064 -87.855 559.15 -87.854 556.236 C-87.851 554.199 -87.847 552.161 -87.844 550.123 C-87.838 545.866 -87.836 541.61 -87.836 537.354 C-87.837 531.901 -87.823 526.448 -87.806 520.995 C-87.795 516.793 -87.793 512.591 -87.793 508.389 C-87.792 506.378 -87.787 504.367 -87.78 502.356 C-87.77 499.549 -87.773 496.742 -87.779 493.935 C-87.773 493.106 -87.768 492.278 -87.762 491.425 C-87.797 485.038 -88.954 480.882 -93.334 476.065 C-93.908 475.425 -94.482 474.786 -95.073 474.127 C-97.343 471.725 -99.677 469.393 -102.022 467.065 C-103.497 465.59 -104.973 464.114 -106.448 462.639 C-107.244 461.843 -108.04 461.047 -108.86 460.227 C-112.58 456.506 -116.301 452.785 -120.022 449.065 C-121.837 450.853 -123.649 452.645 -125.459 454.44 C-125.976 454.947 -126.492 455.455 -127.024 455.979 C-129.879 458.75 -129.879 458.75 -132.022 462.065 C-132.682 462.065 -133.342 462.065 -134.022 462.065 C-134.486 463.024 -134.486 463.024 -134.959 464.002 C-136.022 466.065 -136.022 466.065 -137.022 467.065 C-137.118 468.849 -137.144 470.637 -137.142 472.424 C-137.143 473.586 -137.145 474.749 -137.146 475.947 C-137.143 477.233 -137.139 478.52 -137.135 479.846 C-137.135 481.206 -137.135 482.565 -137.136 483.925 C-137.136 487.628 -137.13 491.33 -137.123 495.032 C-137.117 498.897 -137.116 502.762 -137.115 506.627 C-137.112 513.951 -137.104 521.275 -137.094 528.599 C-137.083 536.935 -137.077 545.271 -137.072 553.607 C-137.062 570.76 -137.044 587.912 -137.022 605.065 C-138.342 605.725 -139.662 606.385 -141.022 607.065 C-141.104 606.33 -141.186 605.594 -141.271 604.837 C-142.191 601.44 -143.507 600.131 -146.03 597.701 C-146.852 596.896 -147.674 596.091 -148.522 595.262 C-149.388 594.434 -150.254 593.605 -151.147 592.752 C-156.426 587.639 -161.603 582.548 -166.382 576.961 C-169.119 573.796 -172.019 570.788 -174.897 567.752 C-179.729 562.614 -184.346 557.385 -188.748 551.869 C-190.934 549.172 -193.183 546.546 -195.459 543.926 C-200.444 538.187 -205.216 532.367 -209.705 526.225 C-211.461 523.83 -213.242 521.472 -215.057 519.123 C-216.087 517.77 -217.117 516.418 -218.147 515.065 C-218.645 514.429 -219.143 513.794 -219.657 513.139 C-223.069 508.604 -223.069 508.604 -222.834 505.924 C-222.566 505.31 -222.298 504.697 -222.022 504.065 C-221.032 503.735 -220.042 503.405 -219.022 503.065 C-218.348 501.735 -217.683 500.401 -217.022 499.065 C-215.507 497.436 -213.938 495.856 -212.334 494.315 C-208.635 490.748 -205.222 487.042 -201.863 483.162 C-198.817 479.692 -195.636 476.352 -192.459 473.002 C-191.042 471.502 -189.626 470.002 -188.209 468.502 C-187.505 467.757 -186.802 467.012 -186.076 466.244 C-182.455 462.402 -178.856 458.539 -175.258 454.675 C-172.2 451.394 -169.135 448.119 -166.061 444.854 C-165.065 443.795 -165.065 443.795 -164.049 442.715 C-162.787 441.373 -161.523 440.033 -160.258 438.693 C-157.284 435.532 -154.373 432.335 -151.537 429.049 C-148.103 425.096 -144.45 421.413 -140.709 417.752 C-139.482 416.55 -138.256 415.346 -137.033 414.139 C-136.236 413.359 -136.236 413.359 -135.423 412.563 C-133.801 410.91 -133.801 410.91 -132.022 408.065 C-131.362 408.065 -130.702 408.065 -130.022 408.065 C-130.022 407.405 -130.022 406.745 -130.022 406.065 C-126.277 402.32 -123.289 401.253 -118.022 401.065 C-113.727 402.344 -110.996 404.565 -107.709 407.565 C-106.826 408.359 -105.943 409.153 -105.033 409.971 C-103.022 412.065 -103.022 412.065 -103.022 414.065 C-102.032 414.395 -101.042 414.725 -100.022 415.065 C-100.022 415.725 -100.022 416.385 -100.022 417.065 C-99.382 417.333 -98.743 417.601 -98.084 417.877 C-96.022 419.065 -96.022 419.065 -95.022 422.065 C-94.362 422.065 -93.702 422.065 -93.022 422.065 C-91.627 423.485 -91.627 423.485 -89.987 425.479 C-85.037 431.302 -79.548 436.552 -74.078 441.881 C-73.298 442.65 -72.517 443.42 -71.713 444.213 C-71.004 444.906 -70.294 445.598 -69.563 446.312 C-68.022 448.065 -68.022 448.065 -68.022 450.065 C-67.465 450.291 -66.908 450.518 -66.334 450.752 C-63.386 452.426 -61.419 454.667 -59.022 457.065 C-51.337 463.932 -41.133 465.506 -31.022 465.065 C-16.034 462.468 -7.455 454.306 2.107 443.154 C4.983 439.943 8.069 436.952 11.158 433.947 C13.042 432.187 13.042 432.187 13.978 430.065 C14.638 430.065 15.298 430.065 15.978 430.065 C16.191 429.523 16.404 428.982 16.623 428.424 C18.468 425.211 21.018 422.859 23.666 420.315 C27.768 416.3 31.681 412.23 35.404 407.857 C37.026 406.01 38.725 404.287 40.478 402.565 C45.171 397.945 49.429 392.964 53.603 387.877 C55.942 385.107 58.385 382.597 60.978 380.065 C69.811 371.485 69.811 371.485 77.49 361.893 C78.978 360.065 78.978 360.065 81.978 359.065 C82.661 357.739 83.325 356.404 83.978 355.065 C85.327 353.603 86.729 352.19 88.166 350.815 C91.684 347.438 94.898 343.896 98.089 340.214 C101.298 336.562 104.64 333.036 107.978 329.502 C108.651 328.786 109.324 328.07 110.017 327.332 C113.776 323.345 117.595 319.433 121.482 315.572 C123.223 313.818 124.869 312.003 126.478 310.127 C127.053 309.462 127.628 308.797 128.22 308.111 C129.091 307.098 129.091 307.098 129.978 306.065 C131.184 304.667 132.393 303.271 133.603 301.877 C134.396 300.959 134.396 300.959 135.205 300.022 C138.211 296.704 141.433 293.603 144.619 290.459 C145.48 289.607 146.341 288.755 147.228 287.877 C148.535 286.587 148.535 286.587 149.869 285.272 C152.008 283.25 152.008 283.25 152.978 281.065 C153.638 281.065 154.298 281.065 154.978 281.065 C155.222 280.492 155.466 279.92 155.717 279.33 C157.203 276.66 158.959 274.926 161.166 272.815 C164.064 269.986 166.848 267.144 169.478 264.065 C172.727 260.274 176.23 256.796 179.783 253.291 C182.418 250.618 184.856 247.811 187.299 244.963 C189.5 242.475 191.859 240.173 194.228 237.846 C196.061 235.981 197.772 234.045 199.478 232.065 C201.724 229.458 204.024 226.975 206.478 224.565 C210.9 220.212 214.908 215.521 218.904 210.779 C219.527 210.048 220.149 209.318 220.791 208.565 C221.354 207.894 221.917 207.224 222.498 206.533 C223.978 205.065 223.978 205.065 225.978 205.065 C226.226 204.446 226.473 203.827 226.728 203.19 C228.199 200.69 229.392 200.231 231.978 199.065 C232.349 199.465 232.719 199.866 233.101 200.279 C240.508 208.275 247.982 216.21 255.603 224.002 C256.265 224.694 256.927 225.385 257.609 226.098 C258.239 226.735 258.869 227.373 259.517 228.029 C260.066 228.593 260.615 229.156 261.18 229.736 C263.395 231.372 265.293 231.596 267.978 232.065 C268.002 217.774 268.019 203.484 268.03 189.193 C268.035 182.558 268.042 175.923 268.054 169.288 C268.065 162.888 268.071 156.489 268.073 150.089 C268.075 147.644 268.079 145.199 268.084 142.753 C268.091 139.336 268.092 135.92 268.092 132.503 C268.095 131.485 268.099 130.467 268.103 129.419 C268.101 128.489 268.1 127.559 268.098 126.601 C268.099 125.793 268.1 124.984 268.101 124.152 C268.057 121.869 268.057 121.869 266.978 119.065 C230.018 118.735 193.058 118.405 154.978 118.065 C154.463 122.822 154.463 122.822 156.509 125.014 C157.159 125.587 157.809 126.161 158.478 126.752 C159.675 127.823 160.85 128.921 161.978 130.065 C161.978 130.725 161.978 131.385 161.978 132.065 C162.565 132.324 163.151 132.583 163.756 132.85 C166.134 134.15 167.667 135.553 169.541 137.502 C170.409 138.397 170.409 138.397 171.295 139.311 C171.85 139.889 172.406 140.468 172.978 141.065 C173.544 141.592 174.11 142.119 174.693 142.662 C175.978 144.065 175.978 144.065 175.978 146.065 C176.618 146.333 177.257 146.601 177.916 146.877 C179.978 148.065 179.978 148.065 180.978 151.065 C181.638 151.065 182.298 151.065 182.978 151.065 C184.564 152.639 184.564 152.639 186.353 154.752 C186.938 155.437 187.524 156.121 188.127 156.826 C190.105 159.218 192.047 161.635 193.978 164.065 C193.555 164.513 193.132 164.961 192.697 165.422 C190.747 167.489 188.8 169.558 186.853 171.627 C186.188 172.331 185.523 173.036 184.838 173.762 C181.666 177.136 178.567 180.526 175.611 184.092 C174.742 185.073 173.873 186.054 172.978 187.065 C172.318 187.065 171.658 187.065 170.978 187.065 C170.724 187.647 170.47 188.23 170.209 188.83 C168.845 191.306 167.336 192.87 165.291 194.815 C162.577 197.455 160 200.124 157.541 203.002 C154.972 205.993 152.285 208.796 149.478 211.565 C144.844 216.143 140.594 220.973 136.388 225.943 C135.628 226.839 135.628 226.839 134.853 227.752 C134.418 228.272 133.982 228.791 133.533 229.326 C130.97 232.192 128.205 234.853 125.471 237.554 C116.802 246.12 116.802 246.12 108.65 255.174 C105.964 258.211 103.043 261.007 100.158 263.854 C98.216 265.823 96.398 267.836 94.603 269.94 C90.91 274.251 86.881 278.195 82.822 282.158 C80.019 284.958 77.449 287.938 74.857 290.932 C70.924 295.396 66.778 299.666 62.676 303.973 C59.861 306.942 57.139 309.86 54.615 313.084 C54.075 313.738 53.535 314.391 52.978 315.065 C52.318 315.065 51.658 315.065 50.978 315.065 C50.753 315.619 50.527 316.173 50.295 316.744 C48.59 319.75 46.4 321.794 43.916 324.19 C40.514 327.306 40.514 327.306 37.978 331.065 C37.318 331.065 36.658 331.065 35.978 331.065 C35.715 331.655 35.451 332.245 35.18 332.853 C33.926 335.16 32.626 336.632 30.748 338.455 C30.113 339.078 29.478 339.702 28.824 340.344 C28.153 340.994 27.482 341.644 26.791 342.315 C21.627 347.395 16.62 352.497 11.978 358.065 C10.713 359.569 9.442 361.069 8.166 362.565 C7.602 363.235 7.039 363.905 6.459 364.596 C4.978 366.065 4.978 366.065 2.978 366.065 C2.728 366.643 2.478 367.222 2.22 367.818 C0.813 370.363 -0.795 371.999 -2.897 374.002 C-5.856 376.881 -8.473 379.812 -11.022 383.065 C-12.68 384.74 -14.348 386.405 -16.022 388.065 C-17.087 389.15 -18.151 390.238 -19.213 391.326 C-20.337 392.468 -21.46 393.61 -22.584 394.752 C-23.148 395.333 -23.712 395.913 -24.293 396.512 C-24.844 397.069 -25.395 397.627 -25.963 398.201 C-26.455 398.704 -26.947 399.206 -27.454 399.723 C-31.454 403.144 -35.261 403.636 -40.385 403.486 C-50.691 401.837 -58.883 390.424 -65.748 383.264 C-67.032 381.939 -67.032 381.939 -69.022 381.065 C-69.022 380.075 -69.022 379.085 -69.022 378.065 C-70.012 377.735 -71.002 377.405 -72.022 377.065 C-73.404 375.669 -73.404 375.669 -74.812 373.917 C-79.506 368.242 -84.709 363.077 -89.888 357.848 C-91.142 356.577 -92.391 355.301 -93.634 354.02 C-106 341.071 -106 341.071 -122.737 335.936 C-130.726 336.386 -137.227 339.633 -143.022 345.065 C-143.352 345.725 -143.682 346.385 -144.022 347.065 C-144.682 347.065 -145.342 347.065 -146.022 347.065 C-146.234 347.606 -146.447 348.147 -146.666 348.705 C-148.512 351.918 -151.061 354.27 -153.709 356.815 C-157.811 360.829 -161.724 364.899 -165.448 369.272 C-167.069 371.119 -168.768 372.842 -170.522 374.565 C-174.236 378.22 -177.628 382.113 -181.022 386.065 C-184.893 390.55 -188.779 394.923 -193.022 399.065 C-194.483 400.499 -195.941 401.936 -197.397 403.377 C-198.46 404.423 -198.46 404.423 -199.545 405.49 C-202.192 408.242 -204.685 411.097 -207.188 413.979 C-210.078 417.266 -213.079 420.445 -216.084 423.627 C-217.401 425.027 -218.717 426.426 -220.033 427.826 C-220.695 428.529 -221.357 429.232 -222.039 429.957 C-236.021 444.076 -236.021 444.076 -248.635 459.334 C-249.093 459.905 -249.55 460.476 -250.022 461.065 C-250.682 461.065 -251.342 461.065 -252.022 461.065 C-252.309 460.46 -252.596 459.855 -252.892 459.232 C-254.206 456.468 -255.52 453.704 -256.834 450.94 C-257.286 449.988 -257.738 449.037 -258.203 448.057 C-258.645 447.129 -259.086 446.2 -259.541 445.244 C-259.969 444.344 -260.396 443.444 -260.837 442.517 C-261.803 440.517 -262.818 438.541 -263.846 436.572 C-265.022 434.065 -265.022 434.065 -265.022 431.065 C-265.682 430.735 -266.342 430.405 -267.022 430.065 C-267.983 428.055 -267.983 428.055 -268.967 425.443 C-269.322 424.508 -269.676 423.573 -270.041 422.609 C-270.406 421.625 -270.771 420.641 -271.147 419.627 C-271.519 418.647 -271.892 417.666 -272.276 416.656 C-275.022 409.348 -275.022 409.348 -275.022 407.065 C-275.682 406.735 -276.342 406.405 -277.022 406.065 C-277.733 403.982 -277.733 403.982 -278.397 401.252 C-279.754 395.927 -281.431 390.778 -283.252 385.596 C-284.022 383.065 -284.022 383.065 -284.022 380.065 C-284.682 379.735 -285.342 379.405 -286.022 379.065 C-286.54 377.225 -286.54 377.225 -286.944 374.795 C-287.665 370.832 -288.521 366.951 -289.537 363.053 C-295.202 341.268 -299.73 319.314 -303.173 297.062 C-303.72 293.452 -303.72 293.452 -305.022 290.065 C-305.231 287.881 -305.389 285.692 -305.522 283.502 C-305.651 274.022 -305.651 274.022 -308.022 265.065 C-308.217 262.248 -308.355 259.447 -308.459 256.627 C-308.735 249.948 -309.059 243.278 -309.494 236.607 C-311.997 197.994 -312.569 159.344 -311.117 120.677 C-311.018 117.96 -310.927 115.244 -310.838 112.527 C-310.686 107.951 -310.51 103.376 -310.317 98.802 C-310.246 97.077 -310.181 95.352 -310.122 93.627 C-310.038 91.253 -309.93 88.882 -309.815 86.51 C-309.795 85.811 -309.775 85.112 -309.754 84.392 C-309.574 81.194 -309.232 79.34 -307.269 76.768 C-305 75.048 -302.797 73.672 -300.268 72.365 C-299.342 71.883 -298.416 71.401 -297.462 70.905 C-296.471 70.4 -295.48 69.896 -294.459 69.377 C-293.422 68.845 -292.385 68.313 -291.316 67.765 C-288.223 66.188 -285.124 64.624 -282.022 63.065 C-281.228 62.66 -280.435 62.256 -279.617 61.84 C-207.059 25.065 -207.059 25.065 -176.022 25.065 C-175.692 24.405 -175.362 23.745 -175.022 23.065 C-173.124 22.568 -173.124 22.568 -170.537 22.182 C-165.611 21.367 -160.748 20.372 -155.881 19.26 C-155.153 19.095 -154.426 18.929 -153.676 18.759 C-152.156 18.414 -150.637 18.068 -149.117 17.722 C-137.687 15.127 -126.257 12.586 -114.709 10.565 C-113.811 10.405 -112.913 10.245 -111.988 10.081 C-107.262 9.288 -102.812 8.909 -98.022 9.065 C-97.692 8.405 -97.362 7.745 -97.022 7.065 C-94.584 6.701 -94.584 6.701 -91.354 6.529 C-86.608 6.234 -81.888 5.876 -77.158 5.381 C-61.646 3.8 -46.159 2.638 -30.584 1.877 C-29.722 1.834 -28.859 1.792 -27.97 1.748 C-25.489 1.627 -23.007 1.511 -20.526 1.397 C-19.799 1.362 -19.072 1.328 -18.323 1.293 C-13.804 1.096 -9.312 1.062 -4.789 1.15 C-2.493 1.039 -2.385 0.076 0 0 Z M34.478 193.565 C30.748 198.44 29.566 202.951 28.978 209.065 C29.308 209.395 29.638 209.725 29.978 210.065 C29.937 210.951 29.896 211.838 29.853 212.752 C30.064 218.334 32.823 222.533 36.478 226.678 C41.931 231.718 48.707 233.132 55.978 233.065 C56.968 232.57 56.968 232.57 57.978 232.065 C59.339 231.91 59.339 231.91 60.728 231.752 C67.56 230.307 72.071 225.598 75.978 220.065 C78.895 213.966 78.948 207.22 76.728 200.877 C73.66 193.75 69.944 189.48 62.978 186.065 C52.424 182.71 41.903 185.349 34.478 193.565 Z M-117.612 274.967 C-121.663 280.994 -121.747 287.006 -121.022 294.065 C-119.307 300.235 -115.425 304.727 -110.022 308.065 C-104.066 310.897 -98.815 311.654 -92.408 309.975 C-86.245 307.624 -82.275 304.109 -79.022 298.377 C-76.189 291.951 -75.809 286.087 -77.838 279.357 C-80.64 272.846 -84.673 269.142 -91.022 266.065 C-101.923 262.694 -110.541 266.559 -117.612 274.967 Z M116.978 7.065 C120.978 8.065 120.978 8.065 120.978 8.065 Z M55.978 186.065 C58.978 187.065 58.978 187.065 58.978 187.065 Z M40.978 228.065 C42.978 229.065 42.978 229.065 42.978 229.065 Z M-102.022 348.065 C-101.362 348.065 -100.702 348.065 -100.022 348.065 C-100.352 348.725 -100.682 349.385 -101.022 350.065 C-101.352 349.405 -101.682 348.745 -102.022 348.065 Z M94.978 545.065 C95.638 545.065 96.298 545.065 96.978 545.065 C96.648 546.385 96.318 547.705 95.978 549.065 C95.648 547.745 95.318 546.425 94.978 545.065 Z " fill="#000000" transform="translate(505.0217590332031,152.93548583984375)"/>
<path d="M0 0 C0.33 0 0.66 0 1 0 C1.33 45.54 1.66 91.08 2 138 C0.02 138.99 0.02 138.99 -2 140 C-1.67 139.01 -1.34 138.02 -1 137 C-0.898 135.148 -0.854 133.293 -0.842 131.438 C-0.827 129.703 -0.827 129.703 -0.812 127.933 C-0.806 126.662 -0.801 125.392 -0.795 124.083 C-0.785 122.733 -0.775 121.383 -0.765 120.033 C-0.738 116.366 -0.717 112.699 -0.697 109.032 C-0.675 105.2 -0.647 101.368 -0.621 97.536 C-0.571 90.28 -0.526 83.023 -0.483 75.767 C-0.433 67.505 -0.378 59.244 -0.323 50.983 C-0.209 33.989 -0.102 16.994 0 0 Z " fill="#171616" transform="translate(366,620)"/>
<path d="M0 0 C0.33 0 0.66 0 1 0 C1.33 9.24 1.66 18.48 2 28 C0.02 28.99 0.02 28.99 -2 30 C-1.67 29.01 -1.34 28.02 -1 27 C-0.85 24.936 -0.752 22.869 -0.684 20.801 C-0.642 19.592 -0.6 18.384 -0.557 17.139 C-0.517 15.876 -0.478 14.613 -0.438 13.312 C-0.394 12.038 -0.351 10.764 -0.307 9.451 C-0.2 6.301 -0.098 3.151 0 0 Z " fill="#252424" transform="translate(366,730)"/>
<path d="M0 0 C0.33 0 0.66 0 1 0 C1 2.64 1 5.28 1 8 C0.67 8 0.34 8 0 8 C0 5.36 0 2.72 0 0 Z " fill="#171616" transform="translate(601,711)"/>
<path d="M0 0 C0.33 0.99 0.66 1.98 1 3 C0.01 3.495 0.01 3.495 -1 4 C-0.67 2.68 -0.34 1.36 0 0 Z " fill="#2F2E2F" transform="translate(361,755)"/>
<path d="M0 0 C1 4 1 4 1 4 Z " fill="#101010" transform="translate(601,682)"/>
<path d="M0 0 C1 4 1 4 1 4 Z " fill="#191818" transform="translate(601,773)"/>
<path d="M0 0 C1 4 1 4 1 4 Z " fill="#171616" transform="translate(601,760)"/>
<path d="M0 0 C1 4 1 4 1 4 Z " fill="#101010" transform="translate(601,564)"/>
<path d="M0 0 C0.66 0.66 1.32 1.32 2 2 C1.34 2 0.68 2 0 2 C0 1.34 0 0.68 0 0 Z " fill="#292828" transform="translate(432,812)"/>
<path d="" fill="#171616" transform="translate(0,0)"/>
<path d="" fill="#171616" transform="translate(0,0)"/>
<path d="" fill="#171616" transform="translate(0,0)"/>
<path d="" fill="#292828" transform="translate(0,0)"/>
<path d="" fill="#101010" transform="translate(0,0)"/>
<path d="" fill="#101010" transform="translate(0,0)"/>
<path d="M0 0 C0.33 0.66 0.66 1.32 1 2 C0.34 1.67 -0.32 1.34 -1 1 C-0.67 0.67 -0.34 0.34 0 0 Z " fill="#101010" transform="translate(581,361)"/>
<path d="" fill="#171616" transform="translate(0,0)"/>
<path d="M0 0 C0.99 0.495 0.99 0.495 2 1 C1.01 1.495 1.01 1.495 0 2 C0 1.34 0 0.68 0 0 Z " fill="#1D1C1C" transform="translate(480,152)"/>
<path d="" fill="#383838" transform="translate(0,0)"/>
<path d="" fill="#3A3A3A" transform="translate(0,0)"/>
<path d="" fill="#201F1F" transform="translate(0,0)"/>
<path d="" fill="#201F1F" transform="translate(0,0)"/>
<path d="" fill="#292828" transform="translate(0,0)"/>
<path d="" fill="#171616" transform="translate(0,0)"/>
<path d="M0 0 C2 1 2 1 2 1 Z " fill="#201F1F" transform="translate(337,731)"/>
<path d="" fill="#171616" transform="translate(0,0)"/>
<path d="" fill="#171616" transform="translate(0,0)"/>
<path d="" fill="#171616" transform="translate(0,0)"/>
<path d="" fill="#101010" transform="translate(0,0)"/>
<path d="" fill="#131313" transform="translate(0,0)"/>
<path d="" fill="#101010" transform="translate(0,0)"/>
<path d="" fill="#101010" transform="translate(0,0)"/>
<path d="" fill="#101010" transform="translate(0,0)"/>
<path d="M0 0 C2 1 2 1 2 1 Z " fill="#101010" transform="translate(600,657)"/>
<path d="M0 0 C2 1 2 1 2 1 Z " fill="#171616" transform="translate(485,655)"/>
<path d="M0 0 C2 1 2 1 2 1 Z " fill="#171616" transform="translate(292,645)"/>
<path d="" fill="#101010" transform="translate(0,0)"/>
<path d="" fill="#101010" transform="translate(0,0)"/>
<path d="" fill="#1B1A1A" transform="translate(0,0)"/>
<path d="" fill="#101010" transform="translate(0,0)"/>
<path d="M0 0 C2 1 2 1 2 1 Z " fill="#101010" transform="translate(352,579)"/>
<path d="" fill="#101010" transform="translate(0,0)"/>
<path d="" fill="#101010" transform="translate(0,0)"/>
<path d="" fill="#101010" transform="translate(0,0)"/>
<path d="M0 0 C2 1 2 1 2 1 Z " fill="#101010" transform="translate(581,446)"/>
<path d="" fill="#171616" transform="translate(0,0)"/>
<path d="" fill="#171616" transform="translate(0,0)"/>
<path d="" fill="#171616" transform="translate(0,0)"/>
<path d="" fill="#101010" transform="translate(0,0)"/>
<path d="" fill="#171616" transform="translate(0,0)"/>
<path d="" fill="#171616" transform="translate(0,0)"/>
<path d="" fill="#171616" transform="translate(0,0)"/>
<path d="M0 0 C2 1 2 1 2 1 Z " fill="#1B1A1A" transform="translate(780,203)"/>
<path d="M0 0 C2 1 2 1 2 1 Z " fill="#201F1F" transform="translate(272,193)"/>
<path d="M0 0 C2 1 2 1 2 1 Z " fill="#171616" transform="translate(702,176)"/>
<path d="" fill="#201F1F" transform="translate(0,0)"/>
<path d="M0 0 C2 1 2 1 2 1 Z " fill="#201F1F" transform="translate(344,171)"/>
<path d="M0 0 C2 1 2 1 2 1 Z " fill="#171616" transform="translate(678,170)"/>
<path d="" fill="#3D3C3C" transform="translate(0,0)"/>
<path d="" fill="#4A494A" transform="translate(0,0)"/>
<path d="" fill="#555454" transform="translate(0,0)"/>
<path d="" fill="#4A494A" transform="translate(0,0)"/>
<path d="" fill="#3D3C3C" transform="translate(0,0)"/>
<path d="" fill="#525252" transform="translate(0,0)"/>
<path d="" fill="#3D3C3C" transform="translate(0,0)"/>
<path d="" fill="#383838" transform="translate(0,0)"/>
<path d="" fill="#3D3C3C" transform="translate(0,0)"/>
<path d="" fill="#4D4D4D" transform="translate(0,0)"/>
<path d="" fill="#525252" transform="translate(0,0)"/>
<path d="" fill="#464546" transform="translate(0,0)"/>
<path d="" fill="#585758" transform="translate(0,0)"/>
<path d="" fill="#3D3C3C" transform="translate(0,0)"/>
<path d="" fill="#424141" transform="translate(0,0)"/>
<path d="" fill="#464546" transform="translate(0,0)"/>
<path d="" fill="#525252" transform="translate(0,0)"/>
<path d="" fill="#424141" transform="translate(0,0)"/>
<path d="" fill="#555454" transform="translate(0,0)"/>
<path d="" fill="#424141" transform="translate(0,0)"/>
<path d="" fill="#525252" transform="translate(0,0)"/>
<path d="" fill="#4A494A" transform="translate(0,0)"/>
<path d="" fill="#383838" transform="translate(0,0)"/>
<path d="" fill="#4A494A" transform="translate(0,0)"/>
<path d="" fill="#4D4D4D" transform="translate(0,0)"/>
<path d="" fill="#292828" transform="translate(0,0)"/>
<path d="" fill="#292828" transform="translate(0,0)"/>
<path d="" fill="#201F1F" transform="translate(0,0)"/>
<path d="" fill="#313031" transform="translate(0,0)"/>
<path d="" fill="#313031" transform="translate(0,0)"/>
<path d="" fill="#292828" transform="translate(0,0)"/>
<path d="" fill="#201F1F" transform="translate(0,0)"/>
<path d="" fill="#292828" transform="translate(0,0)"/>
<path d="" fill="#171616" transform="translate(0,0)"/>
<path d="" fill="#292828" transform="translate(0,0)"/>
<path d="" fill="#292828" transform="translate(0,0)"/>
<path d="" fill="#292828" transform="translate(0,0)"/>
<path d="" fill="#504F50" transform="translate(0,0)"/>
<path d="" fill="#201F1F" transform="translate(0,0)"/>
<path d="" fill="#201F1F" transform="translate(0,0)"/>
<path d="" fill="#292828" transform="translate(0,0)"/>
<path d="" fill="#171616" transform="translate(0,0)"/>
<path d="" fill="#201F1F" transform="translate(0,0)"/>
<path d="" fill="#171616" transform="translate(0,0)"/>
<path d="" fill="#504F50" transform="translate(0,0)"/>
<path d="" fill="#313031" transform="translate(0,0)"/>
<path d="" fill="#171616" transform="translate(0,0)"/>
<path d="" fill="#292828" transform="translate(0,0)"/>
<path d="" fill="#171616" transform="translate(0,0)"/>
<path d="" fill="#525252" transform="translate(0,0)"/>
<path d="" fill="#171616" transform="translate(0,0)"/>
<path d="" fill="#201F1F" transform="translate(0,0)"/>
<path d="" fill="#171616" transform="translate(0,0)"/>
<path d="" fill="#171616" transform="translate(0,0)"/>
<path d="" fill="#585758" transform="translate(0,0)"/>
<path d="" fill="#171616" transform="translate(0,0)"/>
<path d="" fill="#292828" transform="translate(0,0)"/>
<path d="" fill="#171616" transform="translate(0,0)"/>
<path d="" fill="#101010" transform="translate(0,0)"/>
<path d="" fill="#201F1F" transform="translate(0,0)"/>
<path d="" fill="#555454" transform="translate(0,0)"/>
<path d="" fill="#201F1F" transform="translate(0,0)"/>
<path d="" fill="#101010" transform="translate(0,0)"/>
<path d="" fill="#101010" transform="translate(0,0)"/>
<path d="" fill="#525252" transform="translate(0,0)"/>
<path d="" fill="#101010" transform="translate(0,0)"/>
<path d="" fill="#171616" transform="translate(0,0)"/>
<path d="" fill="#101010" transform="translate(0,0)"/>
<path d="" fill="#171616" transform="translate(0,0)"/>
<path d="" fill="#101010" transform="translate(0,0)"/>
<path d="" fill="#101010" transform="translate(0,0)"/>
<path d="" fill="#201F1F" transform="translate(0,0)"/>
<path d="" fill="#424141" transform="translate(0,0)"/>
<path d="" fill="#504F50" transform="translate(0,0)"/>
<path d="" fill="#171616" transform="translate(0,0)"/>
<path d="" fill="#171616" transform="translate(0,0)"/>
<path d="" fill="#171616" transform="translate(0,0)"/>
<path d="" fill="#504F50" transform="translate(0,0)"/>
<path d="" fill="#101010" transform="translate(0,0)"/>
<path d="" fill="#101010" transform="translate(0,0)"/>
<path d="" fill="#101010" transform="translate(0,0)"/>
<path d="" fill="#101010" transform="translate(0,0)"/>
<path d="" fill="#101010" transform="translate(0,0)"/>
<path d="" fill="#171616" transform="translate(0,0)"/>
<path d="" fill="#101010" transform="translate(0,0)"/>
<path d="" fill="#101010" transform="translate(0,0)"/>
<path d="" fill="#201F1F" transform="translate(0,0)"/>
<path d="" fill="#171616" transform="translate(0,0)"/>
<path d="" fill="#201F1F" transform="translate(0,0)"/>
<path d="" fill="#101010" transform="translate(0,0)"/>
<path d="" fill="#101010" transform="translate(0,0)"/>
<path d="" fill="#101010" transform="translate(0,0)"/>
<path d="" fill="#101010" transform="translate(0,0)"/>
<path d="" fill="#201F1F" transform="translate(0,0)"/>
<path d="" fill="#101010" transform="translate(0,0)"/>
<path d="" fill="#101010" transform="translate(0,0)"/>
<path d="" fill="#101010" transform="translate(0,0)"/>
<path d="" fill="#101010" transform="translate(0,0)"/>
<path d="" fill="#101010" transform="translate(0,0)"/>
<path d="" fill="#101010" transform="translate(0,0)"/>
<path d="" fill="#101010" transform="translate(0,0)"/>
<path d="" fill="#171616" transform="translate(0,0)"/>
<path d="" fill="#101010" transform="translate(0,0)"/>
<path d="" fill="#101010" transform="translate(0,0)"/>
<path d="" fill="#101010" transform="translate(0,0)"/>
<path d="" fill="#171616" transform="translate(0,0)"/>
<path d="" fill="#585758" transform="translate(0,0)"/>
<path d="" fill="#171616" transform="translate(0,0)"/>
<path d="" fill="#171616" transform="translate(0,0)"/>
<path d="" fill="#171616" transform="translate(0,0)"/>
<path d="" fill="#101010" transform="translate(0,0)"/>
<path d="" fill="#101010" transform="translate(0,0)"/>
<path d="" fill="#4A494A" transform="translate(0,0)"/>
<path d="" fill="#101010" transform="translate(0,0)"/>
<path d="" fill="#101010" transform="translate(0,0)"/>
<path d="" fill="#101010" transform="translate(0,0)"/>
<path d="" fill="#101010" transform="translate(0,0)"/>
<path d="" fill="#171616" transform="translate(0,0)"/>
<path d="" fill="#171616" transform="translate(0,0)"/>
<path d="" fill="#101010" transform="translate(0,0)"/>
<path d="" fill="#101010" transform="translate(0,0)"/>
<path d="" fill="#171616" transform="translate(0,0)"/>
<path d="" fill="#171616" transform="translate(0,0)"/>
<path d="" fill="#101010" transform="translate(0,0)"/>
<path d="" fill="#101010" transform="translate(0,0)"/>
<path d="" fill="#101010" transform="translate(0,0)"/>
<path d="" fill="#201F1F" transform="translate(0,0)"/>
<path d="" fill="#171616" transform="translate(0,0)"/>
<path d="" fill="#101010" transform="translate(0,0)"/>
<path d="" fill="#101010" transform="translate(0,0)"/>
<path d="" fill="#101010" transform="translate(0,0)"/>
<path d="" fill="#101010" transform="translate(0,0)"/>
<path d="" fill="#201F1F" transform="translate(0,0)"/>
<path d="" fill="#101010" transform="translate(0,0)"/>
<path d="" fill="#101010" transform="translate(0,0)"/>
<path d="" fill="#201F1F" transform="translate(0,0)"/>
<path d="" fill="#171616" transform="translate(0,0)"/>
<path d="" fill="#171616" transform="translate(0,0)"/>
<path d="" fill="#101010" transform="translate(0,0)"/>
<path d="" fill="#101010" transform="translate(0,0)"/>
<path d="" fill="#171616" transform="translate(0,0)"/>
<path d="" fill="#101010" transform="translate(0,0)"/>
<path d="" fill="#101010" transform="translate(0,0)"/>
<path d="" fill="#171616" transform="translate(0,0)"/>
<path d="" fill="#171616" transform="translate(0,0)"/>
<path d="" fill="#101010" transform="translate(0,0)"/>
<path d="" fill="#101010" transform="translate(0,0)"/>
<path d="" fill="#101010" transform="translate(0,0)"/>
<path d="" fill="#171616" transform="translate(0,0)"/>
<path d="" fill="#101010" transform="translate(0,0)"/>
<path d="" fill="#171616" transform="translate(0,0)"/>
<path d="" fill="#101010" transform="translate(0,0)"/>
<path d="" fill="#101010" transform="translate(0,0)"/>
<path d="" fill="#171616" transform="translate(0,0)"/>
<path d="" fill="#171616" transform="translate(0,0)"/>
<path d="" fill="#4A494A" transform="translate(0,0)"/>
<path d="" fill="#171616" transform="translate(0,0)"/>
<path d="" fill="#101010" transform="translate(0,0)"/>
<path d="" fill="#101010" transform="translate(0,0)"/>
<path d="" fill="#171616" transform="translate(0,0)"/>
<path d="" fill="#101010" transform="translate(0,0)"/>
<path d="" fill="#424141" transform="translate(0,0)"/>
<path d="" fill="#171616" transform="translate(0,0)"/>
<path d="" fill="#171616" transform="translate(0,0)"/>
<path d="" fill="#171616" transform="translate(0,0)"/>
<path d="" fill="#171616" transform="translate(0,0)"/>
<path d="" fill="#101010" transform="translate(0,0)"/>
<path d="" fill="#101010" transform="translate(0,0)"/>
<path d="" fill="#171616" transform="translate(0,0)"/>
<path d="" fill="#101010" transform="translate(0,0)"/>
<path d="" fill="#171616" transform="translate(0,0)"/>
<path d="" fill="#101010" transform="translate(0,0)"/>
<path d="" fill="#101010" transform="translate(0,0)"/>
<path d="" fill="#101010" transform="translate(0,0)"/>
<path d="" fill="#101010" transform="translate(0,0)"/>
<path d="" fill="#101010" transform="translate(0,0)"/>
<path d="" fill="#101010" transform="translate(0,0)"/>
<path d="" fill="#101010" transform="translate(0,0)"/>
<path d="" fill="#292828" transform="translate(0,0)"/>
<path d="" fill="#101010" transform="translate(0,0)"/>
<path d="" fill="#101010" transform="translate(0,0)"/>
<path d="" fill="#101010" transform="translate(0,0)"/>
<path d="" fill="#101010" transform="translate(0,0)"/>
<path d="" fill="#4A494A" transform="translate(0,0)"/>
<path d="" fill="#3D3C3C" transform="translate(0,0)"/>
<path d="" fill="#171616" transform="translate(0,0)"/>
<path d="" fill="#171616" transform="translate(0,0)"/>
<path d="" fill="#101010" transform="translate(0,0)"/>
<path d="" fill="#424141" transform="translate(0,0)"/>
<path d="" fill="#101010" transform="translate(0,0)"/>
<path d="" fill="#101010" transform="translate(0,0)"/>
<path d="" fill="#101010" transform="translate(0,0)"/>
<path d="" fill="#101010" transform="translate(0,0)"/>
<path d="" fill="#101010" transform="translate(0,0)"/>
<path d="" fill="#101010" transform="translate(0,0)"/>
<path d="" fill="#101010" transform="translate(0,0)"/>
<path d="" fill="#171616" transform="translate(0,0)"/>
<path d="" fill="#4D4D4D" transform="translate(0,0)"/>
<path d="" fill="#171616" transform="translate(0,0)"/>
<path d="" fill="#171616" transform="translate(0,0)"/>
<path d="" fill="#101010" transform="translate(0,0)"/>
<path d="" fill="#4A494A" transform="translate(0,0)"/>
<path d="" fill="#171616" transform="translate(0,0)"/>
<path d="" fill="#171616" transform="translate(0,0)"/>
<path d="" fill="#171616" transform="translate(0,0)"/>
<path d="" fill="#313031" transform="translate(0,0)"/>
<path d="" fill="#201F1F" transform="translate(0,0)"/>
<path d="" fill="#201F1F" transform="translate(0,0)"/>
<path d="" fill="#4D4D4D" transform="translate(0,0)"/>
<path d="" fill="#292828" transform="translate(0,0)"/>
<path d="" fill="#4A494A" transform="translate(0,0)"/>
<path d="" fill="#201F1F" transform="translate(0,0)"/>
<path d="" fill="#201F1F" transform="translate(0,0)"/>
<path d="" fill="#201F1F" transform="translate(0,0)"/>
<path d="" fill="#201F1F" transform="translate(0,0)"/>
<path d="" fill="#201F1F" transform="translate(0,0)"/>
<path d="" fill="#555454" transform="translate(0,0)"/>
<path d="" fill="#201F1F" transform="translate(0,0)"/>
<path d="" fill="#171616" transform="translate(0,0)"/>
<path d="" fill="#201F1F" transform="translate(0,0)"/>
<path d="" fill="#201F1F" transform="translate(0,0)"/>
<path d="" fill="#201F1F" transform="translate(0,0)"/>
<path d="" fill="#171616" transform="translate(0,0)"/>
<path d="" fill="#201F1F" transform="translate(0,0)"/>
<path d="" fill="#201F1F" transform="translate(0,0)"/>
<path d="" fill="#171616" transform="translate(0,0)"/>
<path d="" fill="#171616" transform="translate(0,0)"/>
<path d="" fill="#201F1F" transform="translate(0,0)"/>
<path d="" fill="#4D4D4D" transform="translate(0,0)"/>
<path d="" fill="#292828" transform="translate(0,0)"/>
<path d="" fill="#201F1F" transform="translate(0,0)"/>
<path d="" fill="#201F1F" transform="translate(0,0)"/>
<path d="" fill="#171616" transform="translate(0,0)"/>
<path d="" fill="#171616" transform="translate(0,0)"/>
<path d="" fill="#171616" transform="translate(0,0)"/>
<path d="" fill="#201F1F" transform="translate(0,0)"/>
<path d="" fill="#201F1F" transform="translate(0,0)"/>
<path d="" fill="#201F1F" transform="translate(0,0)"/>
<path d="" fill="#201F1F" transform="translate(0,0)"/>
<path d="" fill="#201F1F" transform="translate(0,0)"/>
<path d="" fill="#171616" transform="translate(0,0)"/>
<path d="" fill="#201F1F" transform="translate(0,0)"/>
<path d="" fill="#171616" transform="translate(0,0)"/>
<path d="" fill="#201F1F" transform="translate(0,0)"/>
<path d="" fill="#171616" transform="translate(0,0)"/>
<path d="" fill="#171616" transform="translate(0,0)"/>
<path d="" fill="#201F1F" transform="translate(0,0)"/>
<path d="" fill="#171616" transform="translate(0,0)"/>
<path d="" fill="#171616" transform="translate(0,0)"/>
<path d="" fill="#171616" transform="translate(0,0)"/>
<path d="" fill="#171616" transform="translate(0,0)"/>
<path d="" fill="#171616" transform="translate(0,0)"/>
<path d="" fill="#171616" transform="translate(0,0)"/>
<path d="" fill="#171616" transform="translate(0,0)"/>
<path d="" fill="#171616" transform="translate(0,0)"/>
<path d="" fill="#171616" transform="translate(0,0)"/>
<path d="" fill="#171616" transform="translate(0,0)"/>
<path d="" fill="#525252" transform="translate(0,0)"/>
<path d="" fill="#525252" transform="translate(0,0)"/>
<path d="" fill="#555454" transform="translate(0,0)"/>
<path d="" fill="#504F50" transform="translate(0,0)"/>
<path d="" fill="#504F50" transform="translate(0,0)"/>
<path d="" fill="#504F50" transform="translate(0,0)"/>
<path d="" fill="#555454" transform="translate(0,0)"/>
<path d="" fill="#585758" transform="translate(0,0)"/>
<path d="" fill="#555454" transform="translate(0,0)"/>
<path d="" fill="#585758" transform="translate(0,0)"/>
<path d="" fill="#525252" transform="translate(0,0)"/>
<path d="" fill="#585758" transform="translate(0,0)"/>
<path d="" fill="#585758" transform="translate(0,0)"/>
<path d="" fill="#585758" transform="translate(0,0)"/>
</svg>